note_on channel=0 note=58 velocity=28 time=240
note_on channel=0 note=58 velocity=0 time=0
note_on channel=0 note=56 velocity=22 time=0
note_on channel=0 note=56 velocity=0 time=0
note_on channel=0 note=56 velocity=28 time=240
note_on channel=0 note=53 velocity=23 time=0
note_on channel=0 note=53 velocity=0 time=240
note_on channel=0 note=56 velocity=0 time=0
note_on channel=0 note=58 velocity=36 time=0
note_on channel=0 note=58 velocity=0 time=360
note_on channel=0 note=57 velocity=46 time=240
note_on channel=0 note=57 velocity=0 time=0
note_on channel=0 note=54 velocity=37 time=0
note_on channel=0 note=54 velocity=0 time=480
note_on channel=0 note=56 velocity=36 time=0
note_on channel=0 note=56 velocity=0 time=240
note_on channel=0 note=58 velocity=38 time=0
note_on channel=0 note=58 velocity=0 time=480
note_on channel=0 note=54 velocity=37 time=0
note_on channel=0 note=54 velocity=0 time=480
note_on channel=0 note=56 velocity=34 time=0
note_on channel=0 note=56 velocity=0 time=240
note_on channel=0 note=58 velocity=38 time=0
note_on channel=0 note=58 velocity=0 time=480
note_on channel=0 note=58 velocity=34 time=0
note_on channel=0 note=58 velocity=0 time=240
note_on channel=0 note=58 velocity=31 time=0
note_on channel=0 note=58 velocity=0 time=240
note_on channel=0 note=58 velocity=34 time=0
note_on channel=0 note=58 velocity=0 time=240
note_on channel=0 note=58 velocity=31 time=0
note_on channel=0 note=58 velocity=0 time=240
note_on channel=0 note=53 velocity=26 time=240
note_on channel=0 note=56 velocity=26 time=0
note_on channel=0 note=56 velocity=0 time=240
note_on channel=0 note=53 velocity=0 time=0
note_on channel=0 note=56 velocity=33 time=0
note_on channel=0 note=56 velocity=0 time=0
note_on channel=0 note=56 velocity=27 time=0
note_on channel=0 note=56 velocity=0 time=0
note_on channel=0 note=58 velocity=33 time=240
note_on channel=0 note=58 velocity=0 time=0
note_on channel=0 note=56 velocity=25 time=480
note_on channel=0 note=56 velocity=0 time=120
note_on channel=0 note=56 velocity=26 time=360
note_on channel=0 note=56 velocity=0 time=120
note_on channel=0 note=56 velocity=28 time=480
note_on channel=0 note=56 velocity=0 time=120
note_on channel=0 note=56 velocity=27 time=360
note_on channel=0 note=56 velocity=0 time=120
note_on channel=0 note=58 velocity=30 time=0
note_on channel=0 note=58 velocity=0 time=0
note_on channel=0 note=57 velocity=28 time=0
note_on channel=0 note=57 velocity=0 time=0
note_on channel=0 note=56 velocity=28 time=0
note_on channel=0 note=58 velocity=33 time=0
note_on channel=0 note=56 velocity=0 time=621
note_on channel=0 note=54 velocity=38 time=0
note_on channel=0 note=58 velocity=0 time=696
note_on channel=0 note=54 velocity=0 time=2
note_on channel=0 note=53 velocity=26 time=0
note_on channel=0 note=56 velocity=31 time=0
note_on channel=0 note=56 velocity=0 time=718
note_on channel=0 note=53 velocity=0 time=722
note_on channel=0 note=51 velocity=23 time=0
note_on channel=0 note=54 velocity=28 time=0
note_on channel=0 note=51 velocity=0 time=296
note_on channel=0 note=44 velocity=28 time=0
note_on channel=0 note=54 velocity=0 time=360
note_on channel=0 note=37 velocity=30 time=0
note_on channel=0 note=37 velocity=0 time=219
note_on channel=0 note=44 velocity=0 time=0
note_on channel=0 note=42 velocity=28 time=0
note_on channel=0 note=49 velocity=33 time=0
note_on channel=0 note=58 velocity=22 time=0
note_on channel=0 note=54 velocity=22 time=0
note_on channel=0 note=49 velocity=22 time=0
note_on channel=0 note=49 velocity=0 time=1200
note_on channel=0 note=42 velocity=0 time=0
note_on channel=0 note=54 velocity=0 time=720
note_on channel=0 note=58 velocity=0 time=0
note_on channel=0 note=49 velocity=0 time=0
note_on channel=0 note=41 velocity=30 time=0
note_on channel=0 note=49 velocity=36 time=0
note_on channel=0 note=53 velocity=28 time=127
note_on channel=0 note=56 velocity=33 time=0
note_on channel=0 note=56 velocity=0 time=480
note_on channel=0 note=53 velocity=0 time=0
note_on channel=0 note=41 velocity=0 time=2
note_on channel=0 note=49 velocity=0 time=0
note_on channel=0 note=56 velocity=27 time=0
note_on channel=0 note=56 velocity=0 time=0
note_on channel=0 note=42 velocity=28 time=0
note_on channel=0 note=49 velocity=33 time=0
note_on channel=0 note=58 velocity=22 time=0
note_on channel=0 note=54 velocity=22 time=0
note_on channel=0 note=49 velocity=22 time=0
note_on channel=0 note=49 velocity=0 time=714
note_on channel=0 note=42 velocity=0 time=0
note_on channel=0 note=54 velocity=0 time=720
note_on channel=0 note=58 velocity=0 time=0
note_on channel=0 note=49 velocity=0 time=0
note_on channel=0 note=44 velocity=36 time=0
note_on channel=0 note=53 velocity=28 time=120
note_on channel=0 note=59 velocity=33 time=0
note_on channel=0 note=59 velocity=0 time=480
note_on channel=0 note=53 velocity=0 time=0
note_on channel=0 note=59 velocity=28 time=0
note_on channel=0 note=59 velocity=0 time=487
note_on channel=0 note=44 velocity=0 time=480
note_on channel=0 note=46 velocity=39 time=0
note_on channel=0 note=53 velocity=32 time=0
note_on channel=0 note=58 velocity=32 time=0
note_on channel=0 note=46 velocity=0 time=296
note_on channel=0 note=58 velocity=0 time=720
note_on channel=0 note=53 velocity=0 time=0
note_on channel=0 note=27 velocity=30 time=0
note_on channel=0 note=39 velocity=36 time=0
note_on channel=0 note=27 velocity=0 time=0
note_on channel=0 note=39 velocity=0 time=0
note_on channel=0 note=58 velocity=28 time=0
note_on channel=0 note=58 velocity=0 time=0
note_on channel=0 note=46 velocity=36 time=0
note_on channel=0 note=27 velocity=30 time=0
note_on channel=0 note=39 velocity=30 time=0
note_on channel=0 note=27 velocity=0 time=0
note_on channel=0 note=39 velocity=0 time=0
note_on channel=0 note=46 velocity=0 time=0
note_on channel=0 note=58 velocity=30 time=0
note_on channel=0 note=58 velocity=0 time=0
note_on channel=0 note=32 velocity=35 time=0
note_on channel=0 note=44 velocity=42 time=0
note_on channel=0 note=54 velocity=48 time=212
note_on channel=0 note=54 velocity=0 time=360
note_on channel=0 note=56 velocity=38 time=0
note_on channel=0 note=56 velocity=0 time=360
note_on channel=0 note=32 velocity=0 time=0
note_on channel=0 note=44 velocity=0 time=0
note_on channel=0 note=58 velocity=39 time=0
note_on channel=0 note=58 velocity=0 time=268
note_on channel=0 note=54 velocity=44 time=0
note_on channel=0 note=54 velocity=0 time=360
note_on channel=0 note=33 velocity=35 time=0
note_on channel=0 note=45 velocity=42 time=0
note_on channel=0 note=54 velocity=30 time=0
note_on channel=0 note=54 velocity=0 time=240
note_on channel=0 note=54 velocity=30 time=0
note_on channel=0 note=54 velocity=0 time=230
note_on channel=0 note=54 velocity=33 time=0
note_on channel=0 note=54 velocity=0 time=240
note_on channel=0 note=54 velocity=31 time=0
note_on channel=0 note=54 velocity=0 time=220
note_on channel=0 note=56 velocity=34 time=20
note_on channel=0 note=56 velocity=0 time=0
note_on channel=0 note=33 velocity=0 time=0
note_on channel=0 note=45 velocity=0 time=0
note_on channel=0 note=54 velocity=33 time=0
note_on channel=0 note=54 velocity=0 time=0
note_on channel=0 note=34 velocity=39 time=0
note_on channel=0 note=46 velocity=46 time=0
note_on channel=0 note=58 velocity=38 time=0
note_on channel=0 note=54 velocity=40 time=0
note_on channel=0 note=54 velocity=0 time=360
note_on channel=0 note=56 velocity=45 time=0
note_on channel=0 note=56 velocity=0 time=360
note_on channel=0 note=58 velocity=0 time=0
note_on channel=0 note=46 velocity=0 time=0
note_on channel=0 note=34 velocity=0 time=0
note_on channel=0 note=58 velocity=43 time=0
note_on channel=0 note=58 velocity=0 time=268
note_on channel=0 note=54 velocity=41 time=0
note_on channel=0 note=54 velocity=0 time=360
note_on channel=0 note=36 velocity=38 time=0
note_on channel=0 note=48 velocity=45 time=0
note_on channel=0 note=58 velocity=33 time=0
note_on channel=0 note=54 velocity=33 time=0
note_on channel=0 note=54 velocity=0 time=240
note_on channel=0 note=58 velocity=0 time=0
note_on channel=0 note=58 velocity=33 time=0
note_on channel=0 note=54 velocity=33 time=0
note_on channel=0 note=54 velocity=0 time=230
note_on channel=0 note=58 velocity=0 time=0
note_on channel=0 note=58 velocity=35 time=0
note_on channel=0 note=54 velocity=35 time=0
note_on channel=0 note=54 velocity=0 time=240
note_on channel=0 note=58 velocity=0 time=0
note_on channel=0 note=58 velocity=34 time=0
note_on channel=0 note=54 velocity=34 time=0
note_on channel=0 note=54 velocity=0 time=220
note_on channel=0 note=58 velocity=0 time=0
note_on channel=0 note=56 velocity=36 time=20
note_on channel=0 note=56 velocity=0 time=0
note_on channel=0 note=36 velocity=0 time=0
note_on channel=0 note=48 velocity=0 time=0
note_on channel=0 note=54 velocity=35 time=0
note_on channel=0 note=58 velocity=35 time=0
note_on channel=0 note=58 velocity=0 time=0
note_on channel=0 note=54 velocity=0 time=0
note_on channel=0 note=37 velocity=43 time=0
note_on channel=0 note=49 velocity=51 time=0
note_on channel=0 note=58 velocity=41 time=0
note_on channel=0 note=54 velocity=44 time=0
note_on channel=0 note=54 velocity=0 time=360
note_on channel=0 note=56 velocity=49 time=0
note_on channel=0 note=56 velocity=0 time=360
note_on channel=0 note=58 velocity=0 time=0
note_on channel=0 note=49 velocity=0 time=0
note_on channel=0 note=37 velocity=0 time=0
note_on channel=0 note=58 velocity=49 time=0
note_on channel=0 note=58 velocity=0 time=360
note_on channel=0 note=39 velocity=41 time=0
note_on channel=0 note=51 velocity=49 time=0
note_on channel=0 note=58 velocity=40 time=0
note_on channel=0 note=54 velocity=40 time=0
note_on channel=0 note=54 velocity=0 time=240
note_on channel=0 note=58 velocity=0 time=0
note_on channel=0 note=58 velocity=40 time=0
note_on channel=0 note=54 velocity=40 time=0
note_on channel=0 note=54 velocity=0 time=230
note_on channel=0 note=58 velocity=0 time=0
note_on channel=0 note=58 velocity=43 time=0
note_on channel=0 note=54 velocity=43 time=0
note_on channel=0 note=54 velocity=0 time=240
note_on channel=0 note=58 velocity=0 time=0
note_on channel=0 note=58 velocity=41 time=0
note_on channel=0 note=54 velocity=41 time=0
note_on channel=0 note=54 velocity=0 time=220
note_on channel=0 note=58 velocity=0 time=0
note_on channel=0 note=56 velocity=42 time=20
note_on channel=0 note=56 velocity=0 time=0
note_on channel=0 note=39 velocity=0 time=0
note_on channel=0 note=51 velocity=0 time=0
note_on channel=0 note=58 velocity=42 time=0
note_on channel=0 note=54 velocity=42 time=0
note_on channel=0 note=54 velocity=0 time=117
note_on channel=0 note=58 velocity=0 time=0
note_on channel=0 note=56 velocity=27 time=0
note_on channel=0 note=56 velocity=0 time=0
note_on channel=0 note=37 velocity=32 time=0
note_on channel=0 note=44 velocity=30 time=34
note_on channel=0 note=44 velocity=0 time=120
note_on channel=0 note=49 velocity=30 time=0
note_on channel=0 note=49 velocity=0 time=120
note_on channel=0 note=37 velocity=0 time=0
note_on channel=0 note=53 velocity=30 time=0
note_on channel=0 note=53 velocity=0 time=120
note_on channel=0 note=56 velocity=30 time=0
note_on channel=0 note=56 velocity=0 time=120
note_on channel=0 note=41 velocity=33 time=0
note_on channel=0 note=48 velocity=26 time=46
note_on channel=0 note=48 velocity=0 time=120
note_on channel=0 note=53 velocity=27 time=0
note_on channel=0 note=53 velocity=0 time=120
note_on channel=0 note=41 velocity=0 time=0
note_on channel=0 note=56 velocity=28 time=0
note_on channel=0 note=56 velocity=0 time=120
note_on channel=0 note=44 velocity=34 time=0
note_on channel=0 note=52 velocity=32 time=51
note_on channel=0 note=52 velocity=0 time=120
note_on channel=0 note=56 velocity=32 time=0
note_on channel=0 note=56 velocity=0 time=120
note_on channel=0 note=44 velocity=0 time=0
note_on channel=0 note=59 velocity=32 time=0
note_on channel=0 note=59 velocity=0 time=120
note_on channel=0 note=37 velocity=33 time=0
note_on channel=0 note=44 velocity=30 time=46
note_on channel=0 note=44 velocity=0 time=120
note_on channel=0 note=49 velocity=30 time=0
note_on channel=0 note=49 velocity=0 time=120
note_on channel=0 note=37 velocity=0 time=0
note_on channel=0 note=53 velocity=30 time=0
note_on channel=0 note=53 velocity=0 time=120
note_on channel=0 note=56 velocity=30 time=0
note_on channel=0 note=56 velocity=0 time=120
note_on channel=0 note=41 velocity=33 time=0
note_on channel=0 note=48 velocity=30 time=63
note_on channel=0 note=48 velocity=0 time=120
note_on channel=0 note=53 velocity=30 time=0
note_on channel=0 note=53 velocity=0 time=120
note_on channel=0 note=41 velocity=0 time=0
note_on channel=0 note=56 velocity=31 time=0
note_on channel=0 note=56 velocity=0 time=120
note_on channel=0 note=44 velocity=34 time=0
note_on channel=0 note=52 velocity=32 time=57
note_on channel=0 note=52 velocity=0 time=120
note_on channel=0 note=56 velocity=32 time=0
note_on channel=0 note=56 velocity=0 time=120
note_on channel=0 note=44 velocity=0 time=0
note_on channel=0 note=59 velocity=32 time=0
note_on channel=0 note=59 velocity=0 time=120
note_on channel=0 note=37 velocity=33 time=0
note_on channel=0 note=37 velocity=0 time=14
note_on channel=0 note=44 velocity=33 time=0
note_on channel=0 note=44 velocity=0 time=120
note_on channel=0 note=49 velocity=33 time=0
note_on channel=0 note=49 velocity=0 time=120
note_on channel=0 note=53 velocity=33 time=0
note_on channel=0 note=53 velocity=0 time=120
note_on channel=0 note=56 velocity=33 time=0
note_on channel=0 note=56 velocity=0 time=120
note_on channel=0 note=56 velocity=34 time=0
note_on channel=0 note=56 velocity=0 time=120
note_on channel=0 note=53 velocity=36 time=0
note_on channel=0 note=53 velocity=0 time=120
note_on channel=0 note=56 velocity=36 time=0
note_on channel=0 note=56 velocity=0 time=28
note_on channel=0 note=53 velocity=36 time=0
note_on channel=0 note=53 velocity=0 time=120
note_on channel=0 note=49 velocity=36 time=0
note_on channel=0 note=49 velocity=0 time=120
note_on channel=0 note=44 velocity=36 time=0
note_on channel=0 note=44 velocity=0 time=120
note_on channel=0 note=49 velocity=36 time=0
note_on channel=0 note=49 velocity=0 time=120
note_on channel=0 note=44 velocity=37 time=0
note_on channel=0 note=44 velocity=0 time=120
note_on channel=0 note=39 velocity=37 time=0
note_on channel=0 note=39 velocity=0 time=57
note_on channel=0 note=46 velocity=37 time=0
note_on channel=0 note=46 velocity=0 time=120
note_on channel=0 note=51 velocity=37 time=0
note_on channel=0 note=51 velocity=0 time=120
note_on channel=0 note=55 velocity=37 time=0
note_on channel=0 note=55 velocity=0 time=120
note_on channel=0 note=58 velocity=37 time=0
note_on channel=0 note=58 velocity=0 time=120
note_on channel=0 note=58 velocity=36 time=0
note_on channel=0 note=58 velocity=0 time=120
note_on channel=0 note=55 velocity=34 time=0
note_on channel=0 note=55 velocity=0 time=120
note_on channel=0 note=51 velocity=34 time=0
note_on channel=0 note=51 velocity=0 time=120
note_on channel=0 note=46 velocity=34 time=0
note_on channel=0 note=46 velocity=0 time=120
note_on channel=0 note=39 velocity=33 time=0
note_on channel=0 note=39 velocity=0 time=57
note_on channel=0 note=46 velocity=33 time=0
note_on channel=0 note=46 velocity=0 time=120
note_on channel=0 note=51 velocity=33 time=0
note_on channel=0 note=51 velocity=0 time=120
note_on channel=0 note=55 velocity=33 time=0
note_on channel=0 note=55 velocity=0 time=120
note_on channel=0 note=51 velocity=33 time=0
note_on channel=0 note=51 velocity=0 time=120
note_on channel=0 note=46 velocity=33 time=0
note_on channel=0 note=46 velocity=0 time=120
note_on channel=0 note=44 velocity=37 time=0
note_on channel=0 note=51 velocity=33 time=56
note_on channel=0 note=51 velocity=0 time=120
note_on channel=0 note=54 velocity=33 time=0
note_on channel=0 note=54 velocity=0 time=120
note_on channel=0 note=58 velocity=33 time=0
note_on channel=0 note=58 velocity=0 time=120
note_on channel=0 note=44 velocity=0 time=0
note_on channel=0 note=42 velocity=38 time=0
note_on channel=0 note=49 velocity=32 time=35
note_on channel=0 note=49 velocity=0 time=120
note_on channel=0 note=54 velocity=33 time=0
note_on channel=0 note=54 velocity=0 time=120
note_on channel=0 note=58 velocity=34 time=0
note_on channel=0 note=58 velocity=0 time=120
note_on channel=0 note=42 velocity=0 time=0
note_on channel=0 note=41 velocity=40 time=0
note_on channel=0 note=48 velocity=36 time=35
note_on channel=0 note=48 velocity=0 time=120
note_on channel=0 note=53 velocity=37 time=0
note_on channel=0 note=53 velocity=0 time=120
note_on channel=0 note=56 velocity=38 time=0
note_on channel=0 note=56 velocity=0 time=120
note_on channel=0 note=41 velocity=0 time=0
note_on channel=0 note=44 velocity=37 time=7
note_on channel=0 note=51 velocity=33 time=64
note_on channel=0 note=51 velocity=0 time=120
note_on channel=0 note=54 velocity=33 time=0
note_on channel=0 note=54 velocity=0 time=120
note_on channel=0 note=58 velocity=33 time=0
note_on channel=0 note=58 velocity=0 time=120
note_on channel=0 note=44 velocity=0 time=0
note_on channel=0 note=42 velocity=39 time=0
note_on channel=0 note=49 velocity=34 time=29
note_on channel=0 note=49 velocity=0 time=120
note_on channel=0 note=54 velocity=37 time=0
note_on channel=0 note=54 velocity=0 time=120
note_on channel=0 note=58 velocity=38 time=0
note_on channel=0 note=58 velocity=0 time=120
note_on channel=0 note=42 velocity=0 time=0
note_on channel=0 note=41 velocity=44 time=0
note_on channel=0 note=48 velocity=39 time=22
note_on channel=0 note=48 velocity=0 time=120
note_on channel=0 note=53 velocity=40 time=0
note_on channel=0 note=53 velocity=0 time=120
note_on channel=0 note=56 velocity=43 time=0
note_on channel=0 note=56 velocity=0 time=120
note_on channel=0 note=39 velocity=45 time=0
note_on channel=0 note=41 velocity=0 time=0
note_on channel=0 note=46 velocity=40 time=105
note_on channel=0 note=46 velocity=0 time=113
note_on channel=0 note=51 velocity=40 time=0
note_on channel=0 note=51 velocity=0 time=120
note_on channel=0 note=54 velocity=40 time=0
note_on channel=0 note=54 velocity=0 time=120
note_on channel=0 note=58 velocity=40 time=0
note_on channel=0 note=58 velocity=0 time=120
note_on channel=0 note=39 velocity=0 time=0
note_on channel=0 note=56 velocity=44 time=0
note_on channel=0 note=56 velocity=0 time=0
note_on channel=0 note=49 velocity=43 time=2
note_on channel=0 note=56 velocity=37 time=110
note_on channel=0 note=56 velocity=0 time=114
note_on channel=0 note=49 velocity=0 time=0
note_on channel=0 note=56 velocity=46 time=0
note_on channel=0 note=53 velocity=39 time=0
note_on channel=0 note=56 velocity=0 time=46
note_on channel=0 note=53 velocity=0 time=0
note_on channel=0 note=59 velocity=50 time=0
note_on channel=0 note=56 velocity=42 time=0
note_on channel=0 note=59 velocity=0 time=40
note_on channel=0 note=56 velocity=0 time=2
note_on channel=0 note=49 velocity=48 time=0
note_on channel=0 note=56 velocity=43 time=57
note_on channel=0 note=56 velocity=0 time=120
note_on channel=0 note=49 velocity=0 time=0
note_on channel=0 note=56 velocity=51 time=0
note_on channel=0 note=53 velocity=43 time=0
note_on channel=0 note=56 velocity=0 time=69
note_on channel=0 note=53 velocity=0 time=0
note_on channel=0 note=59 velocity=54 time=0
note_on channel=0 note=56 velocity=45 time=0
note_on channel=0 note=59 velocity=0 time=11
note_on channel=0 note=56 velocity=0 time=0
note_on channel=0 note=59 velocity=44 time=0
note_on channel=0 note=59 velocity=0 time=0
note_on channel=0 note=59 velocity=56 time=240
note_on channel=0 note=59 velocity=0 time=0
note_on channel=0 note=57 velocity=56 time=360
note_on channel=0 note=57 velocity=0 time=0
note_on channel=0 note=56 velocity=56 time=360
note_on channel=0 note=56 velocity=0 time=0
note_on channel=0 note=54 velocity=56 time=0
note_on channel=0 note=57 velocity=38 time=0
note_on channel=0 note=57 velocity=0 time=120
note_on channel=0 note=54 velocity=37 time=0
note_on channel=0 note=54 velocity=0 time=120
note_on channel=0 note=54 velocity=0 time=0
note_on channel=0 note=42 velocity=43 time=0
note_on channel=0 note=42 velocity=0 time=42
note_on channel=0 note=49 velocity=38 time=0
note_on channel=0 note=49 velocity=0 time=120
note_on channel=0 note=52 velocity=39 time=0
note_on channel=0 note=52 velocity=0 time=28
note_on channel=0 note=54 velocity=40 time=0
note_on channel=0 note=54 velocity=0 time=120
note_on channel=0 note=57 velocity=42 time=0
note_on channel=0 note=57 velocity=0 time=120
note_on channel=0 note=57 velocity=40 time=0
note_on channel=0 note=57 velocity=0 time=120
note_on channel=0 note=54 velocity=40 time=0
note_on channel=0 note=54 velocity=0 time=120
note_on channel=0 note=52 velocity=39 time=0
note_on channel=0 note=52 velocity=0 time=56
note_on channel=0 note=49 velocity=38 time=0
note_on channel=0 note=49 velocity=0 time=120
note_on channel=0 note=42 velocity=37 time=0
note_on channel=0 note=42 velocity=0 time=21
note_on channel=0 note=49 velocity=34 time=0
note_on channel=0 note=49 velocity=0 time=120
note_on channel=0 note=42 velocity=37 time=0
note_on channel=0 note=42 velocity=0 time=28
note_on channel=0 note=49 velocity=34 time=0
note_on channel=0 note=49 velocity=0 time=120
note_on channel=0 note=42 velocity=37 time=0
note_on channel=0 note=42 velocity=0 time=120
note_on channel=0 note=49 velocity=34 time=0
note_on channel=0 note=49 velocity=0 time=120
note_on channel=0 note=44 velocity=32 time=0
note_on channel=0 note=44 velocity=0 time=120
note_on channel=0 note=51 velocity=31 time=0
note_on channel=0 note=51 velocity=0 time=120
note_on channel=0 note=44 velocity=33 time=0
note_on channel=0 note=44 velocity=0 time=120
note_on channel=0 note=51 velocity=31 time=0
note_on channel=0 note=51 velocity=0 time=120
note_on channel=0 note=44 velocity=33 time=0
note_on channel=0 note=44 velocity=0 time=120
note_on channel=0 note=51 velocity=32 time=0
note_on channel=0 note=51 velocity=0 time=120
note_on channel=0 note=44 velocity=34 time=0
note_on channel=0 note=44 velocity=0 time=7
note_on channel=0 note=51 velocity=32 time=0
note_on channel=0 note=51 velocity=0 time=120
note_on channel=0 note=44 velocity=34 time=0
note_on channel=0 note=44 velocity=0 time=120
note_on channel=0 note=51 velocity=34 time=0
note_on channel=0 note=51 velocity=0 time=120
note_on channel=0 note=44 velocity=36 time=0
note_on channel=0 note=44 velocity=0 time=120
note_on channel=0 note=51 velocity=34 time=0
note_on channel=0 note=51 velocity=0 time=120
note_on channel=0 note=44 velocity=33 time=0
note_on channel=0 note=44 velocity=0 time=56
note_on channel=0 note=51 velocity=31 time=0
note_on channel=0 note=51 velocity=0 time=120
note_on channel=0 note=44 velocity=33 time=0
note_on channel=0 note=44 velocity=0 time=120
note_on channel=0 note=51 velocity=31 time=0
note_on channel=0 note=51 velocity=0 time=120
note_on channel=0 note=44 velocity=33 time=0
note_on channel=0 note=44 velocity=0 time=120
note_on channel=0 note=51 velocity=31 time=0
note_on channel=0 note=51 velocity=0 time=120
note_on channel=0 note=44 velocity=32 time=0
note_on channel=0 note=44 velocity=0 time=21
note_on channel=0 note=51 velocity=31 time=0
note_on channel=0 note=51 velocity=0 time=120
note_on channel=0 note=44 velocity=33 time=0
note_on channel=0 note=44 velocity=0 time=120
note_on channel=0 note=51 velocity=31 time=0
note_on channel=0 note=51 velocity=0 time=120
note_on channel=0 note=44 velocity=33 time=0
note_on channel=0 note=44 velocity=0 time=120
note_on channel=0 note=51 velocity=32 time=0
note_on channel=0 note=51 velocity=0 time=120
note_on channel=0 note=44 velocity=34 time=0
note_on channel=0 note=44 velocity=0 time=28
note_on channel=0 note=51 velocity=32 time=0
note_on channel=0 note=51 velocity=0 time=120
note_on channel=0 note=44 velocity=34 time=0
note_on channel=0 note=44 velocity=0 time=120
note_on channel=0 note=51 velocity=33 time=0
note_on channel=0 note=51 velocity=0 time=120
note_on channel=0 note=44 velocity=36 time=0
note_on channel=0 note=44 velocity=0 time=120
note_on channel=0 note=51 velocity=34 time=0
note_on channel=0 note=51 velocity=0 time=120
note_on channel=0 note=44 velocity=33 time=0
note_on channel=0 note=44 velocity=0 time=35
note_on channel=0 note=51 velocity=31 time=0
note_on channel=0 note=51 velocity=0 time=120
note_on channel=0 note=44 velocity=33 time=0
note_on channel=0 note=44 velocity=0 time=120
note_on channel=0 note=51 velocity=31 time=0
note_on channel=0 note=51 velocity=0 time=120
note_on channel=0 note=44 velocity=33 time=0
note_on channel=0 note=44 velocity=0 time=120
note_on channel=0 note=51 velocity=31 time=0
note_on channel=0 note=51 velocity=0 time=120
note_on channel=0 note=44 velocity=37 time=0
note_on channel=0 note=44 velocity=0 time=14
note_on channel=0 note=39 velocity=33 time=0
note_on channel=0 note=39 velocity=0 time=120
note_on channel=0 note=44 velocity=37 time=0
note_on channel=0 note=44 velocity=0 time=120
note_on channel=0 note=51 velocity=36 time=0
note_on channel=0 note=51 velocity=0 time=120
note_on channel=0 note=44 velocity=37 time=0
note_on channel=0 note=44 velocity=0 time=120
note_on channel=0 note=51 velocity=36 time=0
note_on channel=0 note=51 velocity=0 time=120
note_on channel=0 note=56 velocity=39 time=0
note_on channel=0 note=56 velocity=0 time=56
note_on channel=0 note=51 velocity=34 time=0
note_on channel=0 note=51 velocity=0 time=120
note_on channel=0 note=56 velocity=37 time=0
note_on channel=0 note=56 velocity=0 time=120
note_on channel=0 note=56 velocity=36 time=0
note_on channel=0 note=56 velocity=0 time=120
note_on channel=0 note=51 velocity=34 time=0
note_on channel=0 note=51 velocity=0 time=120
note_on channel=0 note=56 velocity=37 time=0
note_on channel=0 note=56 velocity=0 time=42
note_on channel=0 note=51 velocity=34 time=0
note_on channel=0 note=51 velocity=0 time=120
note_on channel=0 note=44 velocity=34 time=0
note_on channel=0 note=44 velocity=0 time=120
note_on channel=0 note=51 velocity=33 time=0
note_on channel=0 note=51 velocity=0 time=120
note_on channel=0 note=44 velocity=34 time=0
note_on channel=0 note=44 velocity=0 time=120
note_on channel=0 note=39 velocity=33 time=0
note_on channel=0 note=39 velocity=0 time=120
note_on channel=0 note=44 velocity=37 time=0
note_on channel=0 note=44 velocity=0 time=42
note_on channel=0 note=39 velocity=33 time=0
note_on channel=0 note=39 velocity=0 time=120
note_on channel=0 note=44 velocity=37 time=0
note_on channel=0 note=44 velocity=0 time=120
note_on channel=0 note=51 velocity=36 time=0
note_on channel=0 note=51 velocity=0 time=120
note_on channel=0 note=44 velocity=37 time=0
note_on channel=0 note=44 velocity=0 time=120
note_on channel=0 note=51 velocity=36 time=0
note_on channel=0 note=51 velocity=0 time=120
note_on channel=0 note=56 velocity=39 time=0
note_on channel=0 note=56 velocity=0 time=49
note_on channel=0 note=51 velocity=34 time=0
note_on channel=0 note=51 velocity=0 time=120
note_on channel=0 note=56 velocity=37 time=0
note_on channel=0 note=56 velocity=0 time=120
note_on channel=0 note=56 velocity=36 time=0
note_on channel=0 note=56 velocity=0 time=120
note_on channel=0 note=51 velocity=34 time=0
note_on channel=0 note=51 velocity=0 time=120
note_on channel=0 note=56 velocity=37 time=0
note_on channel=0 note=56 velocity=0 time=56
note_on channel=0 note=51 velocity=37 time=0
note_on channel=0 note=51 velocity=0 time=120
note_on channel=0 note=56 velocity=34 time=0
note_on channel=0 note=56 velocity=0 time=120
note_on channel=0 note=51 velocity=33 time=0
note_on channel=0 note=51 velocity=0 time=120
note_on channel=0 note=56 velocity=34 time=0
note_on channel=0 note=56 velocity=0 time=120
note_on channel=0 note=51 velocity=33 time=0
note_on channel=0 note=51 velocity=0 time=120
note_on channel=0 note=54 velocity=40 time=0
note_on channel=0 note=54 velocity=0 time=402
note_on channel=0 note=56 velocity=39 time=0
note_on channel=0 note=56 velocity=0 time=240
note_on channel=0 note=58 velocity=42 time=0
note_on channel=0 note=58 velocity=0 time=402
note_on channel=0 note=54 velocity=40 time=0
note_on channel=0 note=54 velocity=0 time=409
note_on channel=0 note=56 velocity=39 time=0
note_on channel=0 note=56 velocity=0 time=240
note_on channel=0 note=58 velocity=42 time=0
note_on channel=0 note=58 velocity=0 time=367
note_on channel=0 note=48 velocity=30 time=0
note_on channel=0 note=54 velocity=30 time=42
note_on channel=0 note=54 velocity=0 time=120
note_on channel=0 note=58 velocity=29 time=0
note_on channel=0 note=58 velocity=0 time=120
note_on channel=0 note=48 velocity=0 time=0
note_on channel=0 note=53 velocity=29 time=0
note_on channel=0 note=53 velocity=0 time=621
note_on channel=0 note=56 velocity=30 time=0
note_on channel=0 note=58 velocity=28 time=60
note_on channel=0 note=58 velocity=0 time=120
note_on channel=0 note=54 velocity=27 time=46
note_on channel=0 note=58 velocity=27 time=53
note_on channel=0 note=56 velocity=0 time=60
note_on channel=0 note=58 velocity=0 time=0
note_on channel=0 note=54 velocity=0 time=0
note_on channel=0 note=53 velocity=29 time=0
note_on channel=0 note=56 velocity=29 time=21
note_on channel=0 note=56 velocity=0 time=120
note_on channel=0 note=58 velocity=28 time=0
note_on channel=0 note=58 velocity=0 time=120
note_on channel=0 note=53 velocity=0 time=635
note_on channel=0 note=51 velocity=32 time=0
note_on channel=0 note=54 velocity=32 time=0
note_on channel=0 note=51 velocity=0 time=240
note_on channel=0 note=44 velocity=32 time=0
note_on channel=0 note=54 velocity=0 time=0
note_on channel=0 note=37 velocity=28 time=0
note_on channel=0 note=59 velocity=28 time=240
note_on channel=0 note=37 velocity=0 time=720
note_on channel=0 note=44 velocity=0 time=0
note_on channel=0 note=59 velocity=0 time=0
note_on channel=0 note=42 velocity=26 time=0
note_on channel=0 note=49 velocity=31 time=0
note_on channel=0 note=58 velocity=21 time=0
note_on channel=0 note=54 velocity=21 time=0
note_on channel=0 note=49 velocity=21 time=0
note_on channel=0 note=49 velocity=0 time=536
note_on channel=0 note=42 velocity=0 time=0
note_on channel=0 note=54 velocity=0 time=720
note_on channel=0 note=58 velocity=0 time=0
note_on channel=0 note=49 velocity=0 time=0
note_on channel=0 note=44 velocity=33 time=0
note_on channel=0 note=53 velocity=31 time=113
note_on channel=0 note=56 velocity=31 time=0
note_on channel=0 note=56 velocity=0 time=480
note_on channel=0 note=53 velocity=0 time=0
note_on channel=0 note=59 velocity=26 time=0
note_on channel=0 note=44 velocity=0 time=0
note_on channel=0 note=59 velocity=0 time=0
note_on channel=0 note=46 velocity=31 time=0
note_on channel=0 note=58 velocity=25 time=0
note_on channel=0 note=53 velocity=21 time=0
note_on channel=0 note=46 velocity=0 time=0
note_on channel=0 note=58 velocity=0 time=0
note_on channel=0 note=53 velocity=0 time=0
note_on channel=0 note=41 velocity=34 time=0
note_on channel=0 note=41 velocity=0 time=508
note_on channel=0 note=39 velocity=34 time=0
note_on channel=0 note=51 velocity=25 time=564
note_on channel=0 note=51 velocity=0 time=522
note_on channel=0 note=39 velocity=0 time=0
note_on channel=0 note=44 velocity=34 time=0
note_on channel=0 note=51 velocity=31 time=275
note_on channel=0 note=51 velocity=0 time=360
note_on channel=0 note=44 velocity=0 time=0
note_on channel=0 note=56 velocity=25 time=0
note_on channel=0 note=56 velocity=0 time=621
note_on channel=0 note=37 velocity=31 time=0
note_on channel=0 note=44 velocity=27 time=0
note_on channel=0 note=44 velocity=0 time=120
note_on channel=0 note=49 velocity=26 time=0
note_on channel=0 note=49 velocity=0 time=120
note_on channel=0 note=53 velocity=26 time=0
note_on channel=0 note=53 velocity=0 time=120
note_on channel=0 note=37 velocity=0 time=240
note_on channel=0 note=41 velocity=31 time=0
note_on channel=0 note=48 velocity=28 time=28
note_on channel=0 note=48 velocity=0 time=120
note_on channel=0 note=53 velocity=27 time=0
note_on channel=0 note=53 velocity=0 time=120
note_on channel=0 note=41 velocity=0 time=360
note_on channel=0 note=37 velocity=31 time=0
note_on channel=0 note=44 velocity=28 time=7
note_on channel=0 note=44 velocity=0 time=120
note_on channel=0 note=49 velocity=28 time=0
note_on channel=0 note=49 velocity=0 time=120
note_on channel=0 note=53 velocity=27 time=0
note_on channel=0 note=53 velocity=0 time=120
note_on channel=0 note=37 velocity=0 time=240
note_on channel=0 note=41 velocity=31 time=0
note_on channel=0 note=48 velocity=28 time=28
note_on channel=0 note=48 velocity=0 time=120
note_on channel=0 note=53 velocity=28 time=0
note_on channel=0 note=53 velocity=0 time=120
note_on channel=0 note=41 velocity=0 time=360
note_on channel=0 note=44 velocity=31 time=0
note_on channel=0 note=52 velocity=28 time=0
note_on channel=0 note=52 velocity=0 time=120
note_on channel=0 note=56 velocity=28 time=0
note_on channel=0 note=56 velocity=0 time=120
note_on channel=0 note=59 velocity=27 time=0
note_on channel=0 note=59 velocity=0 time=120
note_on channel=0 note=44 velocity=0 time=0
note_on channel=0 note=49 velocity=31 time=0
note_on channel=0 note=56 velocity=30 time=7
note_on channel=0 note=56 velocity=0 time=120
note_on channel=0 note=49 velocity=0 time=240
note_on channel=0 note=53 velocity=31 time=0
note_on channel=0 note=53 velocity=0 time=360
note_on channel=0 note=49 velocity=31 time=0
note_on channel=0 note=56 velocity=28 time=21
note_on channel=0 note=56 velocity=0 time=120
note_on channel=0 note=49 velocity=0 time=240
note_on channel=0 note=53 velocity=31 time=0
note_on channel=0 note=53 velocity=0 time=360
note_on channel=0 note=56 velocity=31 time=0
note_on channel=0 note=59 velocity=25 time=11
note_on channel=0 note=59 velocity=0 time=120
note_on channel=0 note=56 velocity=0 time=0
note_on channel=0 note=56 velocity=31 time=0
note_on channel=0 note=59 velocity=25 time=11
note_on channel=0 note=59 velocity=0 time=120
note_on channel=0 note=56 velocity=0 time=0
note_on channel=0 note=44 velocity=30 time=0
note_on channel=0 note=44 velocity=0 time=720
note_on channel=0 note=37 velocity=33 time=0
note_on channel=0 note=44 velocity=26 time=32
note_on channel=0 note=44 velocity=0 time=120
note_on channel=0 note=49 velocity=24 time=0
note_on channel=0 note=49 velocity=0 time=120
note_on channel=0 note=53 velocity=22 time=0
note_on channel=0 note=53 velocity=0 time=120
note_on channel=0 note=56 velocity=21 time=0
note_on channel=0 note=56 velocity=0 time=120
note_on channel=0 note=37 velocity=0 time=0
